<?xml version="1.0" ?><!-- Uploaded to: SVG Repo, www.svgrepo.com, Generator: SVG Repo Mixer Tools -->
<svg width="800px" height="800px" viewBox="0 0 32 32" id="Layer_1" version="1.1" xml:space="preserve" xmlns="http://www.w3.org/2000/svg" xmlns:xlink="http://www.w3.org/1999/xlink"><style type="text/css">
	.st0{fill:#00BBB4;}
	.st1{fill:#1B75BC;}
	.st2{fill:#F15A29;}
</style><path class="st2" d="M29.5656128,5H2.4343872C1.6422119,5,1,5.6421509,1,6.4343872v19.1311035  C1,26.3577271,1.6422119,27,2.4343872,27h27.1312256C30.3577881,27,31,26.3577271,31,25.5654907V6.4343872  C31,5.6421509,30.3577881,5,29.5656128,5z M8.4121094,23.7929688H5c-0.5522461,0-1-0.4477539-1-1s0.4477539-1,1-1h3.4121094  c0.5522461,0,1,0.4477539,1,1S8.9643555,23.7929688,8.4121094,23.7929688z M11.8237305,20.0429688H5c-0.5522461,0-1-0.4477539-1-1  s0.4477539-1,1-1h6.8237305c0.5522461,0,1,0.4477539,1,1S12.3759766,20.0429688,11.8237305,20.0429688z M25.9580078,21.7142334  v1.0787354c0,0.5522461-0.4477539,1-1,1s-1-0.4477539-1-1v-0.9514771c-1.0842285-0.2926636-2.0424805-1.203186-2.0424805-2.8497925  c0-0.5522461,0.4477539-1,1-1s1,0.4477539,1,1c0,0.6401367,0.2763672,0.9643555,0.8212891,0.9643555  C25.2250977,19.9560547,26,19.6049805,26,18.6630859c0-0.8017578-0.5224609-1.1499023-1.7148438-1.753418  c-0.9887695-0.5004883-2.3422852-1.1850586-2.3422852-2.7421875c0-1.4801025,0.753479-2.5595093,2.0151367-2.9153442v-0.9591675  c0-0.5522461,0.4477539-1,1-1s1,0.4477539,1,1v1.0458374c0.8598633,0.3187866,1.5164185,0.9351196,1.8535156,1.4033813  c0.3227539,0.4482422,0.2211914,1.0732422-0.2270508,1.3959961c-0.4467773,0.3222656-1.0683594,0.222168-1.3920898-0.2216797  c-0.0375977-0.0507813-0.7490234-0.984375-1.6640625-0.7529297c-0.1748047,0.0439453-0.5854492,0.1464844-0.5854492,1.0039063  c0,0.2822266,0.3671875,0.5131836,1.2451172,0.9575195C26.3076172,15.6918945,28,16.5478516,28,18.6630859  C28,20.1930542,27.0849609,21.2626953,25.9580078,21.7142334z"/></svg>