<!DOCTYPE svg PUBLIC "-//W3C//DTD SVG 1.1//EN" "http://www.w3.org/Graphics/SVG/1.1/DTD/svg11.dtd">
<!-- Uploaded to: SVG Repo, www.svgrepo.com, Transformed by: SVG Repo Mixer Tools -->
<svg height="800px" width="800px" version="1.1" id="Layer_1" xmlns="http://www.w3.org/2000/svg" xmlns:xlink="http://www.w3.org/1999/xlink" viewBox="0 0 512 512" xml:space="preserve" fill="#000000">
<g id="SVGRepo_bgCarrier" stroke-width="0"/>
<g id="SVGRepo_tracerCarrier" stroke-linecap="round" stroke-linejoin="round"/>
<g id="SVGRepo_iconCarrier"> <g transform="translate(0 1)"> <g> <path style="fill:#3399FF;" d="M506.088,358.253c6.827-5.12,7.68-15.36,2.56-22.187c-11.093-14.507-19.627-18.773-56.32,0.853 L378.088,383c-23.04,11.947-81.92,8.533-107.52,8.533c0,0,60.587,4.267,36.693-31.573c-11.947-17.92-32.427-28.16-54.613-28.16 h-33.28c-19.627,0-38.4-5.973-53.76-17.067c-36.693-28.16-105.813,25.6-105.813,25.6v153.6h119.467 c17.067,0,34.133-1.707,51.2-4.267L341.394,472.6c3.413,0,7.68-0.853,11.093-0.853l0,0c9.387-0.853,17.067-5.973,23.893-11.947 L506.088,358.253z"/> <polygon style="fill:#3399FF;" points="25.661,502.467 51.261,502.467 51.261,297.667 25.661,297.667 "/> </g> <polygon style="fill:#FFFFFF;" points="17.128,502.467 25.661,502.467 25.661,297.667 17.128,297.667 "/> <path style="fill:#3399FF;" d="M497.554,342.04c6.827-5.12,7.68-15.36,2.56-22.187c-11.093-14.507-19.627-18.773-56.32,0.853 l-74.24,45.227c-23.04,11.947-81.92,8.533-107.52,8.533c0,0,60.587,4.267,36.693-31.573c-11.947-17.92-32.427-28.16-54.613-28.16 h-33.28c-19.627,0-38.4-5.973-53.76-17.067c-36.693-28.16-105.813,25.6-105.813,25.6v153.6h119.467 c17.067,0,34.133-1.707,51.2-4.267l110.933-17.067c3.413,0,7.68-0.853,11.093-0.853l0,0c9.387-0.853,17.067-5.973,23.893-11.947 L497.554,342.04z"/> <path style="fill:#3399FF;" d="M471.954,342.04c6.827-5.12,7.68-15.36,2.56-22.187c-11.093-14.507-11.093-7.68-47.787,11.947 l-82.773,42.667c-23.04,11.947-81.92,0-107.52,0c0,0,60.587,4.267,36.693-31.573c-11.947-17.92-32.427-28.16-54.613-28.16h-33.28 c38.4,0-96.427-49.493-53.76-17.067c-36.693-28.16-80.213,25.6-80.213,25.6v153.6h93.867c17.067,0,34.133-1.707,51.2-4.267 l110.933-17.067c3.413,0,7.68-0.853,11.093-0.853l0,0c9.387-0.853,17.067-5.973,23.893-11.947L471.954,342.04z"/> <path d="M59.794,511H0.061V391.533c0-5.12,3.413-8.533,8.533-8.533s8.533,3.413,8.533,8.533v102.4h25.6V306.2h-25.6v17.067 c0,5.12-3.413,8.533-8.533,8.533s-8.533-3.413-8.533-8.533v-34.133h59.733V511z"/> <path d="M17.128,357.4c0-5.12-3.413-8.533-8.533-8.533s-8.533,3.413-8.533,8.533s3.413,8.533,8.533,8.533 S17.128,362.52,17.128,357.4"/> <path style="fill:#3399FF;" d="M293.608,62.147c12.8-28.16,40.96-54.613,74.24-54.613c45.227,0,79.36,34.987,83.627,78.507 c0,0,2.56,11.093-2.56,30.72c-6.827,26.453-22.187,50.347-43.52,68.267l-107.52,93.013c-0.853,0.853-2.56,0.853-3.413,0 l-108.373-93.013c-21.333-17.92-36.693-41.813-43.52-68.267c-5.12-19.627-2.56-30.72-2.56-30.72 c4.267-43.52,34.987-78.507,80.213-78.507C253.501,7.533,281.661,33.987,293.608,62.147"/> <path style="fill:#3399FF;" d="M272.274,62.147c12.8-28.16,40.96-54.613,74.24-54.613c45.227,0,79.36,34.987,83.627,78.507 c0,0,2.56,11.093-2.56,30.72c-6.827,26.453-22.187,50.347-43.52,68.267l-107.52,93.013c-0.853,0.853-2.56,0.853-3.413,0 l-108.373-93.013c-21.333-17.92-36.693-41.813-43.52-68.267c-5.12-19.627-2.56-30.72-2.56-30.72 c4.267-43.52,34.987-78.507,80.213-78.507C232.168,7.533,260.328,33.987,272.274,62.147"/> <path style="fill:#3399FF;" d="M273.981,62.147c12.8-28.16,25.6-54.613,58.88-54.613c45.227,0,69.12,34.987,73.387,78.507 c0,0,2.56,11.093-2.56,30.72c-6.827,26.453-22.187,50.347-43.52,68.267l-82.773,93.013c-0.853,0.853-2.56,0.853-3.413,0 l-108.373-93.013c-21.333-17.92-36.693-41.813-43.52-68.267c-5.12-19.627-2.56-30.72-2.56-30.72 c4.267-43.52,34.987-78.507,80.213-78.507C233.021,7.533,261.181,33.987,273.981,62.147"/> <path d="M262.034,383h-82.773c-5.12,0-8.533-3.413-8.533-8.533c0-5.12,3.413-8.533,8.533-8.533h82.773 c5.12,0,8.533,3.413,8.533,8.533C270.568,379.587,267.154,383,262.034,383z"/> <path d="M170.728,485.4h-128V319l3.413-2.56c3.413-2.56,75.093-57.173,116.053-26.453c13.653,10.24,30.72,15.36,48.64,15.36h33.28 c24.747,0,47.787,11.947,61.44,31.573c7.68,11.093,9.387,20.48,5.12,28.16c21.333,0,44.373-1.707,54.613-7.68l73.387-45.227 c37.547-19.627,52.907-19.627,68.267,0.853c7.68,10.24,5.973,25.6-4.267,34.133l0,0l-128.853,102.4 c-8.533,7.68-17.92,12.8-28.16,14.507c-3.413,0.853-7.68,1.707-11.947,1.707L222.781,482.84 C205.714,483.693,187.794,485.4,170.728,485.4z M59.794,468.333h110.933c16.213,0,33.28-0.853,49.493-3.413l112.64-17.067 c3.413,0,5.973,0,9.387-0.853c7.68-0.853,14.507-4.267,19.627-10.24l0.853-0.853l129.707-100.693 c3.413-2.56,3.413-7.68,1.707-10.24c-6.827-10.24-10.24-14.507-46.08,3.413l-73.387,45.227 c-19.627,10.24-57.173,11.093-97.28,10.24c-1.707,0-3.413,0-4.267,0c-5.12,0-8.533,0-11.093,0l0.853-17.067c2.56,0,5.973,0,9.387,0 c11.093-0.853,21.333-2.56,23.893-6.827c0.853-1.707,0-6.827-3.413-11.947c-11.093-16.213-29.013-24.747-48.64-24.747h-33.28 c-22.187,0-42.667-6.827-58.88-18.773c-23.893-18.773-71.68,8.533-92.16,23.04V468.333z M497.554,342.04L497.554,342.04 L497.554,342.04z"/> <path d="M145.128,408.6c-5.12,0-8.533-3.413-8.533-8.533c0-21.333,16.213-34.133,42.667-34.133c5.12,0,8.533,3.413,8.533,8.533 c0,5.12-3.413,8.533-8.533,8.533c-25.6,0-25.6,12.8-25.6,17.067C153.661,405.187,150.248,408.6,145.128,408.6z"/> <path d="M274.834,287.427c-2.56,0-5.12-0.853-6.827-2.56l-109.227-93.013c-23.04-19.627-39.253-45.227-46.08-72.533 c-5.12-18.773-3.413-30.72-2.56-33.28C115.261,34.84,151.101-1,198.888-1c31.573,0,58.88,21.333,74.24,45.227 C288.488,20.333,314.941-1,346.514-1c47.787,0,87.893,36.693,92.16,86.187c0.853,2.56,1.707,14.507-2.56,33.28 c-6.827,27.307-23.04,52.907-46.08,72.533l-108.373,93.867C279.954,286.573,277.394,287.427,274.834,287.427z M198.888,16.067 c-38.4,0-67.413,29.013-71.68,70.827v0.853c0,0-1.707,9.387,2.56,26.453c5.973,23.893,19.627,46.08,40.107,64l104.107,89.6 l104.107-89.6c20.48-17.92,34.133-40.107,40.107-64c4.267-17.067,2.56-26.453,2.56-26.453c-2.56-40.96-34.987-71.68-74.24-71.68 c-30.72,0-55.467,24.747-66.56,49.493l-7.68,17.92l-7.68-17.92C253.501,40.813,228.754,16.067,198.888,16.067z"/> </g> </g>
</svg>